<svg width="24" height="24" viewBox="0 0 24 24" fill="none" xmlns="http://www.w3.org/2000/svg">
<g clip-path="url(#clip0_97_820)">
<path d="M14.0391 0.703421C14.6814 0.516792 15.1567 0.432486 15.5479 0.56475C15.9643 0.705724 16.3162 1.08036 16.7285 1.62432C17.0561 2.05644 17.4368 2.62199 17.8965 3.03741L18.0986 3.20537C18.6567 3.62908 19.4068 3.86742 19.9727 4.08721C20.5919 4.32775 21.0402 4.55787 21.2979 4.92705C21.5548 5.29549 21.6273 5.81697 21.6562 6.51006C21.6828 7.14542 21.67 7.9536 21.8828 8.63702C22.0898 9.30178 22.5605 9.94258 22.8945 10.4661C23.2585 11.0366 23.5 11.5149 23.5 12.0003C23.5 12.4855 23.2584 12.9639 22.8945 13.5345C22.5605 14.0581 22.0896 14.6997 21.8828 15.3646C21.6704 16.0479 21.6838 16.8562 21.6572 17.4915C21.6282 18.1844 21.5557 18.7054 21.2988 19.0735C21.0412 19.4429 20.5929 19.6738 19.9736 19.9144C19.4784 20.1067 18.8416 20.3124 18.3164 20.6448L18.0986 20.7952C17.5469 21.2142 17.1037 21.8824 16.7295 22.3763C16.3687 22.8523 16.0539 23.1988 15.7021 23.3724L15.5488 23.4368C15.1578 23.5692 14.6824 23.4839 14.04 23.2972C13.4563 23.1275 12.7094 22.8616 12 22.8616C11.2908 22.8617 10.5446 23.1276 9.96094 23.2972C9.31871 23.4838 8.84324 23.569 8.45215 23.4368C8.03572 23.2958 7.68383 22.9203 7.27148 22.3763C6.94393 21.9441 6.56321 21.3786 6.10352 20.9632L5.90137 20.7952C5.34337 20.3716 4.59318 20.1341 4.02734 19.9144C3.40797 19.6738 2.95982 19.4428 2.70215 19.0735C2.44525 18.7052 2.37271 18.1844 2.34375 17.4915C2.31722 16.8561 2.33002 16.0471 2.11719 15.3636C1.91015 14.6989 1.43944 14.058 1.10547 13.5345C0.741511 12.9639 0.5 12.4855 0.5 12.0003C0.500043 11.515 0.741518 11.0368 1.10547 10.4661C1.43944 9.9425 1.91039 9.30184 2.11719 8.63702C2.32971 7.95375 2.31621 7.14542 2.34277 6.51006C2.37177 5.81692 2.44426 5.29526 2.70117 4.92705C2.95513 4.56316 3.40275 4.33258 4.02441 4.09014C4.59192 3.86884 5.3437 3.62877 5.90137 3.20537C6.4531 2.78638 6.89627 2.11813 7.27051 1.62432C7.68283 1.08029 8.03495 0.705709 8.45117 0.56475C8.84223 0.432238 9.31754 0.516709 9.95996 0.703421C10.5437 0.873108 11.2906 1.13897 12 1.13897C12.7092 1.13887 13.4554 0.873039 14.0391 0.703421Z" fill="#FFB900" stroke="#F8FAFC"/>
<path d="M10.429 16C10.0914 16 9.76803 15.8634 9.52919 15.6198L6.37269 12.4002C5.87577 11.8933 5.87577 11.0718 6.37269 10.5649C6.86962 10.0581 7.67507 10.0581 8.172 10.5649L10.429 12.8671L14.828 8.38014C15.3249 7.87329 16.1304 7.87329 16.6273 8.38014C17.1242 8.887 17.1242 9.70855 16.6273 10.2154L11.3289 15.6198C11.0904 15.863 10.7666 16 10.429 16Z" fill="#F8FAFC"/>
</g>
<defs>
<clipPath id="clip0_97_820">
<rect width="24" height="24" fill="white"/>
</clipPath>
</defs>
</svg>
