<svg width="68" height="68" viewBox="0 0 68 68" fill="none" xmlns="http://www.w3.org/2000/svg">
<g clip-path="url(#clip0_2_474)">
<rect width="68" height="68" rx="13.6" fill="#04394B"/>
<g clip-path="url(#paint0_angular_2_474_clip_path)" data-figma-skip-parse="true"><g transform="matrix(-0.0238 -1.24468e-09 1.04033e-09 0.05695 57.8 56.95)"><foreignObject x="-1071.43" y="-1071.43" width="2142.86" height="2142.86"><div xmlns="http://www.w3.org/1999/xhtml" style="background:conic-gradient(from 90deg,rgba(8, 27, 41, 1) 0deg,rgba(42, 164, 203, 1) 303.867deg,rgba(209, 255, 224, 1) 360deg);height:100%;width:100%;opacity:1"></div></foreignObject></g></g><rect width="113.9" height="47.6" transform="matrix(-3.65349e-08 -1 -1 5.22976e-08 81.6 113.9)" data-figma-gradient-fill="{&#34;type&#34;:&#34;GRADIENT_ANGULAR&#34;,&#34;stops&#34;:[{&#34;color&#34;:{&#34;r&#34;:0.031434912234544754,&#34;g&#34;:0.10801035910844803,&#34;b&#34;:0.16346153616905212,&#34;a&#34;:1.0},&#34;position&#34;:0.0},{&#34;color&#34;:{&#34;r&#34;:0.16498705744743347,&#34;g&#34;:0.64613533020019531,&#34;b&#34;:0.79807692766189575,&#34;a&#34;:1.0},&#34;position&#34;:0.84407639503479004},{&#34;color&#34;:{&#34;r&#34;:0.82088214159011841,&#34;g&#34;:1.0,&#34;b&#34;:0.88178223371505737,&#34;a&#34;:1.0},&#34;position&#34;:1.0}],&#34;stopsVar&#34;:[{&#34;color&#34;:{&#34;r&#34;:0.031434912234544754,&#34;g&#34;:0.10801035910844803,&#34;b&#34;:0.16346153616905212,&#34;a&#34;:1.0},&#34;position&#34;:0.0},{&#34;color&#34;:{&#34;r&#34;:0.16498705744743347,&#34;g&#34;:0.64613533020019531,&#34;b&#34;:0.79807692766189575,&#34;a&#34;:1.0},&#34;position&#34;:0.84407639503479004},{&#34;color&#34;:{&#34;r&#34;:0.82088214159011841,&#34;g&#34;:1.0,&#34;b&#34;:0.88178223371505737,&#34;a&#34;:1.0},&#34;position&#34;:1.0}],&#34;transform&#34;:{&#34;m00&#34;:-47.599994659423828,&#34;m01&#34;:2.0806623979297001e-06,&#34;m02&#34;:81.599967956542969,&#34;m10&#34;:-2.4893640784284798e-06,&#34;m11&#34;:113.90000152587891,&#34;m12&#34;:-1.5258789062500000e-05},&#34;opacity&#34;:1.0,&#34;blendMode&#34;:&#34;NORMAL&#34;,&#34;visible&#34;:true}"/>
<g clip-path="url(#paint1_angular_2_474_clip_path)" data-figma-skip-parse="true"><g transform="matrix(0.0238 -1.24468e-09 -1.04033e-09 0.05695 10.2 56.95)"><foreignObject x="-1071.43" y="-1071.43" width="2142.86" height="2142.86"><div xmlns="http://www.w3.org/1999/xhtml" style="background:conic-gradient(from 90deg,rgba(8, 27, 41, 1) 0deg,rgba(42, 164, 203, 1) 303.867deg,rgba(209, 255, 224, 1) 360deg);height:100%;width:100%;opacity:1"></div></foreignObject></g></g><rect x="-13.6" y="113.9" width="113.9" height="47.6" transform="rotate(-90 -13.6 113.9)" data-figma-gradient-fill="{&#34;type&#34;:&#34;GRADIENT_ANGULAR&#34;,&#34;stops&#34;:[{&#34;color&#34;:{&#34;r&#34;:0.031434912234544754,&#34;g&#34;:0.10801035910844803,&#34;b&#34;:0.16346153616905212,&#34;a&#34;:1.0},&#34;position&#34;:0.0},{&#34;color&#34;:{&#34;r&#34;:0.16498705744743347,&#34;g&#34;:0.64613533020019531,&#34;b&#34;:0.79807692766189575,&#34;a&#34;:1.0},&#34;position&#34;:0.84407639503479004},{&#34;color&#34;:{&#34;r&#34;:0.82088214159011841,&#34;g&#34;:1.0,&#34;b&#34;:0.88178223371505737,&#34;a&#34;:1.0},&#34;position&#34;:1.0}],&#34;stopsVar&#34;:[{&#34;color&#34;:{&#34;r&#34;:0.031434912234544754,&#34;g&#34;:0.10801035910844803,&#34;b&#34;:0.16346153616905212,&#34;a&#34;:1.0},&#34;position&#34;:0.0},{&#34;color&#34;:{&#34;r&#34;:0.16498705744743347,&#34;g&#34;:0.64613533020019531,&#34;b&#34;:0.79807692766189575,&#34;a&#34;:1.0},&#34;position&#34;:0.84407639503479004},{&#34;color&#34;:{&#34;r&#34;:0.82088214159011841,&#34;g&#34;:1.0,&#34;b&#34;:0.88178223371505737,&#34;a&#34;:1.0},&#34;position&#34;:1.0}],&#34;transform&#34;:{&#34;m00&#34;:47.599994659423828,&#34;m01&#34;:-2.0806623979297001e-06,&#34;m02&#34;:-13.600001335144043,&#34;m10&#34;:-2.4893640784284798e-06,&#34;m11&#34;:113.90000152587891,&#34;m12&#34;:-1.5258789062500000e-05},&#34;opacity&#34;:1.0,&#34;blendMode&#34;:&#34;NORMAL&#34;,&#34;visible&#34;:true}"/>
<path d="M44.5183 23.4815C46.5986 25.5618 48.0157 28.2123 48.5896 31.0977C49.1636 33.9832 48.8688 36.9744 47.743 39.6925C46.6171 42.4105 44.7105 44.7338 42.2644 46.3683C39.8183 48.0027 36.9418 48.8751 33.9998 48.8751C31.058 48.8751 28.1822 48.0026 25.7361 46.3683C23.29 44.7338 21.3835 42.4104 20.2576 39.6925C19.1317 36.9744 18.837 33.9832 19.4109 31.0977C19.9849 28.2124 21.4011 25.5618 23.4812 23.4815L33.9998 12.963L44.5183 23.4815ZM35.3504 22.7081L27.701 33.7579L27.239 34.4249H31.8748V43.0108L32.6492 41.8917L40.2996 30.8419L40.7615 30.1749H36.1248V21.5899L35.3504 22.7081Z" fill="url(#paint2_radial_2_474)"/>
<path d="M44.5183 23.4815C46.5986 25.5618 48.0157 28.2123 48.5896 31.0977C49.1636 33.9832 48.8688 36.9744 47.743 39.6925C46.6171 42.4105 44.7105 44.7338 42.2644 46.3683C39.8183 48.0027 36.9418 48.8751 33.9998 48.8751C31.058 48.8751 28.1822 48.0026 25.7361 46.3683C23.29 44.7338 21.3835 42.4104 20.2576 39.6925C19.1317 36.9744 18.837 33.9832 19.4109 31.0977C19.9849 28.2124 21.4011 25.5618 23.4812 23.4815L33.9998 12.963L44.5183 23.4815ZM35.3504 22.7081L27.701 33.7579L27.239 34.4249H31.8748V43.0108L32.6492 41.8917L40.2996 30.8419L40.7615 30.1749H36.1248V21.5899L35.3504 22.7081Z" fill="white" fill-opacity="0.04"/>
<path d="M44.5183 23.4815C46.5986 25.5618 48.0157 28.2123 48.5896 31.0977C49.1636 33.9832 48.8688 36.9744 47.743 39.6925C46.6171 42.4105 44.7105 44.7338 42.2644 46.3683C39.8183 48.0027 36.9418 48.8751 33.9998 48.8751C31.058 48.8751 28.1822 48.0026 25.7361 46.3683C23.29 44.7338 21.3835 42.4104 20.2576 39.6925C19.1317 36.9744 18.837 33.9832 19.4109 31.0977C19.9849 28.2124 21.4011 25.5618 23.4812 23.4815L33.9998 12.963L44.5183 23.4815ZM35.3504 22.7081L27.701 33.7579L27.239 34.4249H31.8748V43.0108L32.6492 41.8917L40.2996 30.8419L40.7615 30.1749H36.1248V21.5899L35.3504 22.7081Z" stroke="url(#paint3_linear_2_474)" stroke-width="0.85"/>
<g clip-path="url(#clip1_2_474)">
<rect width="68" height="68" rx="13.6" fill="url(#paint4_linear_2_474)"/>
<g filter="url(#filter0_d_2_474)">
<path d="M33.9999 17C36.7051 17 39.2996 18.0746 41.2124 19.9875C43.1253 21.9004 44.1999 24.4948 44.1999 27.2V28.9H50.9999V32.3H49.016L47.7291 47.7411C47.6938 48.1659 47.5001 48.5619 47.1865 48.8507C46.8729 49.1394 46.4622 49.2998 46.0359 49.3H21.9639C21.5377 49.2998 21.127 49.1394 20.8134 48.8507C20.4998 48.5619 20.3061 48.1659 20.2707 47.7411L18.9821 32.3H16.9999V28.9H23.7999V27.2C23.7999 24.4948 24.8746 21.9004 26.7874 19.9875C28.7003 18.0746 31.2947 17 33.9999 17V17ZM35.6999 35.7H32.2999V42.5H35.6999V35.7ZM28.8999 35.7H25.4999V42.5H28.8999V35.7ZM42.4999 35.7H39.0999V42.5H42.4999V35.7ZM33.9999 20.4C32.2553 20.4 30.5774 21.0705 29.3134 22.2729C28.0493 23.4753 27.2957 25.1176 27.2084 26.86L27.1999 27.2V28.9H40.7999V27.2C40.7999 25.4554 40.1294 23.7775 38.927 22.5134C37.7246 21.2493 36.0824 20.4957 34.3399 20.4085L33.9999 20.4Z" fill="url(#paint5_radial_2_474)" shape-rendering="crispEdges"/>
<path d="M33.9999 17.4248C36.5924 17.4248 39.0789 18.4549 40.912 20.2881C42.7452 22.1212 43.7753 24.6078 43.7753 27.2002V29.3252H50.5751V31.875H48.6249L48.5927 32.2646L47.3056 47.7061C47.279 48.0246 47.1335 48.3216 46.8984 48.5381C46.6633 48.7545 46.3556 48.8747 46.0361 48.875H21.9638C21.6443 48.8747 21.3366 48.7545 21.1015 48.5381C20.8664 48.3216 20.7209 48.0246 20.6943 47.7061L19.4052 32.2646L19.373 31.875H17.4247V29.3252H24.2245V27.2002C24.2245 24.6078 25.2547 22.1212 27.0878 20.2881C28.921 18.4549 31.4074 17.4248 33.9999 17.4248ZM25.0751 42.9248H29.3251V35.2754H25.0751V42.9248ZM31.8749 42.9248H36.1249V35.2754H31.8749V42.9248ZM38.6747 42.9248H42.9247V35.2754H38.6747V42.9248ZM33.9999 19.9746C32.1463 19.9746 30.3635 20.6873 29.0204 21.9648C27.6773 23.2424 26.8768 24.9875 26.7841 26.8389L26.7831 26.8496L26.7753 27.1895V29.3252H41.2245V27.2002C41.2245 25.3467 40.5127 23.5638 39.2353 22.2207C37.9578 20.8776 36.2126 20.0771 34.3613 19.9844L34.3505 19.9834L34.0107 19.9756V19.9746H33.9999Z" stroke="url(#paint6_linear_2_474)" stroke-width="0.85" shape-rendering="crispEdges"/>
</g>
<path d="M54.4 8.9407e-06V68M-1.2517e-05 54.4H68M13.6 8.9407e-06L13.6 68M-1.2517e-05 13.6H68M13.6 8.50001L8.49999 13.6M13.6 11.9L11.9 13.6M13.6 5.10001L5.09999 13.6M13.6 1.70001L1.69999 13.6M13.6 -1.69999L-1.70001 13.6M13.6 -5.09999L-1.70001 10.2M54.4 8.50001L59.5 13.6M54.4 11.9L56.1 13.6M54.4 5.10001L62.9 13.6M54.4 1.70001L66.3 13.6M54.4 -1.69999L69.7 13.6M54.4 -5.09999L69.7 10.2M54.4 59.5L59.5 54.4M54.4 56.1L56.1 54.4M54.4 62.9L62.9 54.4M54.4 66.3L66.3 54.4M54.4 69.7L69.7 54.4M54.4 73.1L69.7 57.8M13.6 59.5L8.49999 54.4M13.6 56.1L11.9 54.4M13.6 62.9L5.09999 54.4M13.6 66.3L1.69999 54.4M13.6 69.7L-1.70001 54.4M13.6 73.1L-1.70001 57.8" stroke="url(#paint7_linear_2_474)" stroke-opacity="0.6" stroke-width="0.85"/>
</g>
</g>
<defs>
<clipPath id="paint0_angular_2_474_clip_path"><rect width="113.9" height="47.6" transform="matrix(-3.65349e-08 -1 -1 5.22976e-08 81.6 113.9)"/></clipPath><clipPath id="paint1_angular_2_474_clip_path"><rect x="-13.6" y="113.9" width="113.9" height="47.6" transform="rotate(-90 -13.6 113.9)"/></clipPath><filter id="filter0_d_2_474" x="5.09994" y="10.2" width="57.8" height="56.1" filterUnits="userSpaceOnUse" color-interpolation-filters="sRGB">
<feFlood flood-opacity="0" result="BackgroundImageFix"/>
<feColorMatrix in="SourceAlpha" type="matrix" values="0 0 0 0 0 0 0 0 0 0 0 0 0 0 0 0 0 0 127 0" result="hardAlpha"/>
<feOffset dy="5.1"/>
<feGaussianBlur stdDeviation="5.95"/>
<feComposite in2="hardAlpha" operator="out"/>
<feColorMatrix type="matrix" values="0 0 0 0 0 0 0 0 0 0 0 0 0 0 0 0 0 0 0.21 0"/>
<feBlend mode="normal" in2="BackgroundImageFix" result="effect1_dropShadow_2_474"/>
<feBlend mode="normal" in="SourceGraphic" in2="effect1_dropShadow_2_474" result="shape"/>
</filter>
<radialGradient id="paint2_radial_2_474" cx="0" cy="0" r="1" gradientUnits="userSpaceOnUse" gradientTransform="translate(34 10.6035) rotate(90) scale(64.2008 53.1857)">
<stop stop-color="white"/>
<stop offset="1" stop-color="white" stop-opacity="0.3"/>
</radialGradient>
<linearGradient id="paint3_linear_2_474" x1="34" y1="12.3624" x2="34" y2="49.2999" gradientUnits="userSpaceOnUse">
<stop offset="0.735221" stop-color="#2D516B" stop-opacity="0"/>
<stop offset="1" stop-color="#215479" stop-opacity="0.8"/>
</linearGradient>
<linearGradient id="paint4_linear_2_474" x1="34" y1="0" x2="34" y2="68" gradientUnits="userSpaceOnUse">
<stop stop-color="#46C638"/>
<stop offset="1" stop-color="#7FB437"/>
</linearGradient>
<radialGradient id="paint5_radial_2_474" cx="0" cy="0" r="1" gradientUnits="userSpaceOnUse" gradientTransform="translate(33.9999 15.4619) rotate(90) scale(56.1405 59.0952)">
<stop stop-color="white"/>
<stop offset="1" stop-color="white" stop-opacity="0"/>
</radialGradient>
<linearGradient id="paint6_linear_2_474" x1="33.9999" y1="17" x2="33.9999" y2="49.3" gradientUnits="userSpaceOnUse">
<stop offset="0.735221" stop-color="white" stop-opacity="0"/>
<stop offset="1" stop-color="white" stop-opacity="0.8"/>
</linearGradient>
<linearGradient id="paint7_linear_2_474" x1="34" y1="-5.09999" x2="34" y2="73.1" gradientUnits="userSpaceOnUse">
<stop stop-color="#E1FFF9"/>
<stop offset="1" stop-color="#B5FFF1" stop-opacity="0.1"/>
</linearGradient>
<clipPath id="clip0_2_474">
<rect width="68" height="68" rx="13.6" fill="white"/>
</clipPath>
<clipPath id="clip1_2_474">
<rect width="68" height="68" rx="13.6" fill="white"/>
</clipPath>
</defs>
</svg>
