<svg width="68" height="68" viewBox="0 0 68 68" fill="none" xmlns="http://www.w3.org/2000/svg">
<g clip-path="url(#clip0_2_544)">
<rect width="68" height="68" rx="13.6" fill="#8C1718"/>
<rect width="68" height="68" rx="13.6" fill="url(#paint0_linear_2_544)" fill-opacity="0.1"/>
<g filter="url(#filter0_f_2_544)">
<path d="M52.6505 20.1747L74.6019 -8.5L85 86.7L-34 71.7891L43.4078 61.4663L52.6505 20.1747Z" fill="#AC4632"/>
</g>
<g filter="url(#filter1_f_2_544)" style="mix-blend-mode:plus-lighter">
<path d="M77.6333 66.9203L56.1 81.8428L45.9 32.3L56.1 47.8428L59.5 52.0928L77.6333 66.9203Z" fill="#81AE36" fill-opacity="0.7"/>
</g>
<g filter="url(#filter2_f_2_544)">
<path d="M10.2495 25.7253L-11.7019 54.4L-22.1 -40.8L96.9 -25.8892L19.4922 -15.5663L10.2495 25.7253Z" fill="#AC4632"/>
</g>
<g filter="url(#filter3_f_2_544)" style="mix-blend-mode:plus-lighter">
<path d="M-7.93335 -4.0203L13.6 -41.65L23.8 7.89283L13.6 15.0572L10.2 10.8072L-7.93335 -4.0203Z" fill="#81AE36" fill-opacity="0.5"/>
</g>
<g filter="url(#filter4_d_2_544)">
<path d="M18.6703 42.6918C21.0099 32.34 26.0086 22.7774 33.173 14.9478C33.3004 14.8092 33.4552 14.6986 33.6276 14.6229C33.7999 14.5472 33.9861 14.5081 34.1743 14.5081C34.3626 14.5081 34.5488 14.5472 34.7211 14.6229C34.8935 14.6986 35.0483 14.8092 35.1756 14.9478C35.4578 15.2538 35.6924 15.5122 35.8777 15.7213C42.6719 23.4085 47.4184 32.6845 49.6783 42.6918C46.0386 43.4585 42.3003 43.9617 38.4855 44.1776L34.9342 51.2802C34.8636 51.4212 34.7551 51.5397 34.6209 51.6226C34.4867 51.7054 34.3321 51.7493 34.1743 51.7493C34.0166 51.7493 33.862 51.7054 33.7278 51.6226C33.5936 51.5397 33.4851 51.4212 33.4144 51.2802L29.8631 44.1776C26.1001 43.9649 22.3585 43.4682 18.6703 42.6918V42.6918ZM34.1743 37.5C35.527 37.5 36.8242 36.9627 37.7806 36.0062C38.737 35.0498 39.2743 33.7526 39.2743 32.4C39.2743 31.0474 38.737 29.7502 37.7806 28.7937C36.8242 27.8373 35.527 27.3 34.1743 27.3C32.8217 27.3 31.5245 27.8373 30.5681 28.7937C29.6117 29.7502 29.0743 31.0474 29.0743 32.4C29.0743 33.7526 29.6117 35.0498 30.5681 36.0062C31.5245 36.9627 32.8217 37.5 34.1743 37.5V37.5Z" fill="url(#paint1_radial_2_544)" shape-rendering="crispEdges"/>
<path d="M34.1743 14.9329C34.3037 14.9329 34.4317 14.96 34.5502 15.012C34.6687 15.0641 34.7752 15.1404 34.8627 15.2357H34.8637C35.1444 15.5401 35.3764 15.7962 35.559 16.0023C42.2096 23.5269 46.8829 32.5855 49.1645 42.3607C45.6799 43.0734 42.1061 43.547 38.4614 43.7532L38.2153 43.7669L38.1059 43.9876L34.5541 51.0901C34.5188 51.1604 34.4648 51.2197 34.3979 51.261C34.3308 51.3025 34.2531 51.3245 34.1743 51.3245C34.0954 51.3245 34.0177 51.3025 33.9506 51.261C33.8838 51.2197 33.8297 51.1604 33.7944 51.0901L30.2436 43.9876L30.1332 43.7669L29.8871 43.7532L28.4848 43.6605C25.3601 43.4246 22.2538 42.9884 19.183 42.3607C21.5459 32.2447 26.4698 22.9033 33.4858 15.2357C33.5733 15.1404 33.6798 15.0641 33.7983 15.012C33.9167 14.96 34.0449 14.9329 34.1743 14.9329ZM34.1743 26.8753C32.709 26.8753 31.3041 27.4574 30.268 28.4935C29.2319 29.5295 28.6489 30.9345 28.6489 32.3997C28.6489 33.865 29.2319 35.2708 30.268 36.3069C31.3041 37.3429 32.7091 37.9251 34.1743 37.9251C35.6396 37.9251 37.0453 37.3431 38.0815 36.3069C39.1176 35.2708 39.6996 33.865 39.6996 32.3997C39.6996 30.9346 39.1174 29.5295 38.0815 28.4935C37.0453 27.4573 35.6396 26.8753 34.1743 26.8753Z" stroke="url(#paint2_linear_2_544)" stroke-width="0.85" shape-rendering="crispEdges"/>
</g>
<g filter="url(#filter5_f_2_544)" style="mix-blend-mode:screen">
<path d="M7 19H61.4L49.5739 68.3H18.8261L7 19Z" fill="url(#paint3_linear_2_544)" fill-opacity="0.4"/>
</g>
</g>
<defs>
<filter id="filter0_f_2_544" x="-52.7" y="-27.2" width="156.4" height="132.6" filterUnits="userSpaceOnUse" color-interpolation-filters="sRGB">
<feFlood flood-opacity="0" result="BackgroundImageFix"/>
<feBlend mode="normal" in="SourceGraphic" in2="BackgroundImageFix" result="shape"/>
<feGaussianBlur stdDeviation="9.35" result="effect1_foregroundBlur_2_544"/>
</filter>
<filter id="filter1_f_2_544" x="27.2" y="13.6" width="69.1333" height="86.9428" filterUnits="userSpaceOnUse" color-interpolation-filters="sRGB">
<feFlood flood-opacity="0" result="BackgroundImageFix"/>
<feBlend mode="normal" in="SourceGraphic" in2="BackgroundImageFix" result="shape"/>
<feGaussianBlur stdDeviation="9.35" result="effect1_foregroundBlur_2_544"/>
</filter>
<filter id="filter2_f_2_544" x="-40.8" y="-59.5" width="156.4" height="132.6" filterUnits="userSpaceOnUse" color-interpolation-filters="sRGB">
<feFlood flood-opacity="0" result="BackgroundImageFix"/>
<feBlend mode="normal" in="SourceGraphic" in2="BackgroundImageFix" result="shape"/>
<feGaussianBlur stdDeviation="9.35" result="effect1_foregroundBlur_2_544"/>
</filter>
<filter id="filter3_f_2_544" x="-26.6334" y="-60.35" width="69.1333" height="94.1072" filterUnits="userSpaceOnUse" color-interpolation-filters="sRGB">
<feFlood flood-opacity="0" result="BackgroundImageFix"/>
<feBlend mode="normal" in="SourceGraphic" in2="BackgroundImageFix" result="shape"/>
<feGaussianBlur stdDeviation="9.35" result="effect1_foregroundBlur_2_544"/>
</filter>
<filter id="filter4_d_2_544" x="6.77035" y="7.70812" width="54.808" height="61.0412" filterUnits="userSpaceOnUse" color-interpolation-filters="sRGB">
<feFlood flood-opacity="0" result="BackgroundImageFix"/>
<feColorMatrix in="SourceAlpha" type="matrix" values="0 0 0 0 0 0 0 0 0 0 0 0 0 0 0 0 0 0 127 0" result="hardAlpha"/>
<feOffset dy="5.1"/>
<feGaussianBlur stdDeviation="5.95"/>
<feComposite in2="hardAlpha" operator="out"/>
<feColorMatrix type="matrix" values="0 0 0 0 0 0 0 0 0 0 0 0 0 0 0 0 0 0 0.18 0"/>
<feBlend mode="normal" in2="BackgroundImageFix" result="effect1_dropShadow_2_544"/>
<feBlend mode="normal" in="SourceGraphic" in2="effect1_dropShadow_2_544" result="shape"/>
</filter>
<filter id="filter5_f_2_544" x="3.6" y="15.6" width="61.2" height="56.1" filterUnits="userSpaceOnUse" color-interpolation-filters="sRGB">
<feFlood flood-opacity="0" result="BackgroundImageFix"/>
<feBlend mode="normal" in="SourceGraphic" in2="BackgroundImageFix" result="shape"/>
<feGaussianBlur stdDeviation="1.7" result="effect1_foregroundBlur_2_544"/>
</filter>
<linearGradient id="paint0_linear_2_544" x1="34" y1="0" x2="34" y2="68" gradientUnits="userSpaceOnUse">
<stop offset="0.328125" stop-opacity="0"/>
<stop offset="1"/>
</linearGradient>
<radialGradient id="paint1_radial_2_544" cx="0" cy="0" r="1" gradientUnits="userSpaceOnUse" gradientTransform="translate(34.1744 12.7347) rotate(90) scale(64.7288 53.8949)">
<stop stop-color="white"/>
<stop offset="1" stop-color="white" stop-opacity="0"/>
</radialGradient>
<linearGradient id="paint2_linear_2_544" x1="34.1743" y1="14.5081" x2="34.1743" y2="51.7493" gradientUnits="userSpaceOnUse">
<stop offset="0.735221" stop-color="white" stop-opacity="0"/>
<stop offset="1" stop-color="white" stop-opacity="0.8"/>
</linearGradient>
<linearGradient id="paint3_linear_2_544" x1="34.2" y1="19" x2="33.3765" y2="59.8011" gradientUnits="userSpaceOnUse">
<stop stop-color="#597AB9" stop-opacity="0"/>
<stop offset="1" stop-color="white"/>
</linearGradient>
<clipPath id="clip0_2_544">
<rect width="68" height="68" rx="13.6" fill="white"/>
</clipPath>
</defs>
</svg>
